ply
format ascii 1.0
comment 這是一個正四面體
element vertex 168
property float x
property float y
property float z
end_header
0. 0. 0. 
11. 0. 0. 
22. 0. 0. 
33. 0. 0. 
44. 0. 0. 
55. 0. 0. 
66. 0. 0.
77. 0. 0. 
88. 0. 0. 
99. 0. 0. 
110. 0. 0. 
0. 11. 0. 11. 11. 0. 22. 11.
  0. 33. 11. 0. 44. 11. 0. 55. 11. 0. 66. 11. 0. 77. 11. 0. 88. 11. 0.
  99. 11. 0. 110. 11. 0. 0. 22. 0. 11. 22. 0. 22. 22. 0. 33. 22. 0. 44.
  22. 0. 55. 22. 0. 66. 22. 0. 77. 22. 0. 88. 22. 0. 99. 22. 0. 110. 22.
  0. 0. 33. 0. 11. 33. 0. 22. 33. 0. 33. 33. 0. 44. 33. 0. 55. 33. 0.
  66. 33. 0. 77. 33. 0. 88. 33. 0. 99. 33. 0. 110. 33. 0. 0. 44. 0. 11.
  44. 0. 22. 44. 0. 33. 44. 0. 44. 44. 0. 55. 44. 0. 66. 44. 0. 77. 44.
  0. 88. 44. 0. 99. 44. 0. 110. 44. 0. 0. 55. 0. 11. 55. 0. 22. 55. 0.
  33. 55. 0. 44. 55. 0. 55. 55. 0. 66. 55. 0. 77. 55. 0. 88. 55. 0. 99.
  55. 0. 110. 55. 0. 0. 66. 0. 11. 66. 0. 22. 66. 0. 33. 66. 0. 44. 66.
  0. 55. 66. 0. 66. 66. 0. 77. 66. 0. 88. 66. 0. 99. 66. 0. 110. 66. 0.
  0. 77. 0. 11. 77. 0. 22. 77. 0. 33. 77. 0. 44. 77. 0. 55. 77. 0. 66.
  77. 0. 77. 77. 0. 88. 77. 0. 99. 77. 0. 110. 77. 0.
-52.3384 -9.76823 624.162
-39.6436 -9.94958 619.475
-35.6991 -9.99314 614.168
-94.2527 -9.23779 624.157
-15.8381 -10.2234 641.733
-29.1779 -18.7639 555.065
-76.2907 -18.9489 643.979
-39.9119 -9.84604 679.548
-106.785 -7.99318 654.931
-54.7689 -27.4142 651.944
-55.4371 -75.5107 638.12
-53.6242 -33.3666 658.134
1.68198 -29.0913 636.117
-1.3094 -40.8924 630.052
-72.3802 1.21114 677.942
-34.3352 -13.2363 664.014
-10.2505 -42.4122 670.597
-42.04 -39.3632 666.568
-53.8411 -14.944 662.15
-42.6451 -43.7051 656.661
-51.3384 -9.76837 624.162
-52.3382 -8.76824 624.157
-52.3384 -9.76362 625.162
-38.6436 -9.94971 619.474
-39.6435 -8.94959 619.47
-39.6435 -9.94497 620.475
-34.6991 -9.99341 614.169
-35.6988 -8.99315 614.163
-35.7002 -9.98859 615.168
-93.2527 -9.23823 624.159
-94.2522 -8.2378 624.152
-94.255 -9.23335 625.157
-14.8381 -10.2234 641.731
-15.8381 -9.22343 641.728
-15.8365 -10.2189 642.733
-28.1779 -18.764 555.064
-29.1778 -17.7639 555.06
-29.177 -18.7596 556.065
-75.2907 -18.9514 643.978
-76.2882 -17.9489 643.976
-76.2895 -18.9455 644.979
-38.9119 -9.84619 679.548
-39.9118 -8.84605 679.544
-39.9119 -9.84146 680.548
-105.785 -7.99365 654.933
-106.785 -6.99319 654.927
-106.787 -7.98874 655.931
-53.7689 -27.4141 651.944
-54.769 -26.4142 651.942
-54.7683 -27.4118 652.944
-54.4371 -75.5104 638.119
-55.4374 -74.5107 638.118
-55.4367 -75.5087 639.12
-52.6242 -33.3665 658.134
-53.6243 -32.3666 658.131
-53.6246 -33.3638 659.134
2.68198 -29.0876 636.118
1.67835 -28.0913 636.115
1.68049 -29.0894 637.117
-0.309397 -40.8911 630.053
-1.31068 -39.8924 630.05
-1.31006 -40.8901 631.052
-71.3803 1.20749 677.942
-72.3766 2.21113 677.939
-72.38 1.21434 678.942
-33.3353 -13.2418 664.011
-34.3297 -12.2363 664.011
-34.3331 -13.234 665.014
-9.25047 -42.4114 670.597
-10.2513 -41.4122 670.594
-10.2503 -42.4095 671.597
-41.04 -39.3628 666.566
-42.0404 -38.3632 666.565
-42.0387 -39.3606 667.568
-52.8412 -14.9527 662.148
-53.8324 -13.944 662.149
-53.8386 -14.9424 663.15
-41.6451 -43.704 656.661
-42.6462 -42.7051 656.658
-42.6456 -43.7025 657.661